<svg xmlns="http://www.w3.org/2000/svg" width="54.425" height="22.467" viewBox="0 0 54.425 22.467">
  <g id="Group_451" data-name="Group 451" transform="translate(-2151.633 111)">
    <path id="Path_1" data-name="Path 1" d="M869.906,425.135l-14.248-14.248a1.341,1.341,0,0,1,0-1.9l5.021-5.021a1.341,1.341,0,0,1,1.9,0l14.248,14.248a1.341,1.341,0,0,1,0,1.9l-5.02,5.021a1.341,1.341,0,0,1-1.9,0" transform="translate(1304.542 -514.577)" fill="#91b40d"/>
    <path id="Path_2" data-name="Path 2" d="M816.618,461.074l-6.285-6.285a1.341,1.341,0,0,1,0-1.9l5.021-5.021a1.342,1.342,0,0,1,1.9,0l6.284,6.285a1.341,1.341,0,0,1,0,1.9l-5.021,5.021a1.341,1.341,0,0,1-1.9,0" transform="translate(1341.693 -550.561)" fill="#ffbf00"/>
    <path id="Path_3" data-name="Path 3" d="M974.653,424.7a1.341,1.341,0,0,1-1.341,1.341H969.04a21.575,21.575,0,0,1-15.356-6.361l-8.8-8.8a1.341,1.341,0,0,1,0-1.9l5.021-5.021a1.341,1.341,0,0,1,1.9,0l8.8,8.8a11.856,11.856,0,0,0,8.439,3.5h4.271a1.341,1.341,0,0,1,1.341,1.341Z" transform="translate(1231.406 -514.577)" fill="#1a5221"/>
  </g>
</svg>
