<svg id="Group_411" data-name="Group 411" xmlns="http://www.w3.org/2000/svg" width="16.234" height="16.234" viewBox="0 0 16.234 16.234">
  <path id="Path_4085" data-name="Path 4085" d="M191.587,172.69h0v-5.954c0-2.913-.627-5.156-4.032-5.156a3.535,3.535,0,0,0-3.184,1.75h-.047v-1.478H181.1v10.838h3.362v-5.367c0-1.413.268-2.779,2.018-2.779,1.724,0,1.75,1.613,1.75,2.87v5.277Z" transform="translate(-175.357 -156.456)" fill="#91b40d"/>
  <path id="Path_4086" data-name="Path 4086" d="M8.448,170.176h3.366v10.838H8.448Z" transform="translate(-8.18 -164.78)" fill="#91b40d"/>
  <path id="Path_4087" data-name="Path 4087" d="M1.949,0A1.959,1.959,0,1,0,3.9,1.949,1.95,1.95,0,0,0,1.949,0Z" fill="#91b40d"/>
</svg>
