<svg xmlns="http://www.w3.org/2000/svg" width="17.962" height="18" viewBox="0 0 17.962 18">
  <g id="Group_3" data-name="Group 3" transform="translate(-0.539 0)">
    <g id="Group_2" data-name="Group 2" transform="translate(0.539 0)">
      <path id="Path_12" data-name="Path 12" d="M18.03,13.21,15.518,10.7a1.671,1.671,0,0,0-2.781.628A1.709,1.709,0,0,1,10.764,12.4,7.746,7.746,0,0,1,6.1,7.738,1.626,1.626,0,0,1,7.175,5.764,1.671,1.671,0,0,0,7.8,2.983L5.291.471a1.792,1.792,0,0,0-2.422,0l-1.7,1.7c-1.7,1.794.179,6.549,4.4,10.766s8.971,6.19,10.766,4.4l1.7-1.7A1.792,1.792,0,0,0,18.03,13.21Z" transform="translate(-0.539 0)" fill="#91b40d"/>
    </g>
  </g>
</svg>
