<svg xmlns="http://www.w3.org/2000/svg" width="19.235" height="16" viewBox="0 0 19.235 16">
  <path id="Path_3988" data-name="Path 3988" d="M18.929,36.352A7.617,7.617,0,0,1,17.6,36.8a4.135,4.135,0,0,0,1.092-1.738h0a.217.217,0,0,0-.317-.253h0a7.653,7.653,0,0,1-2.028.838.517.517,0,0,1-.127.016.537.537,0,0,1-.355-.136,4.147,4.147,0,0,0-2.744-1.036,4.434,4.434,0,0,0-1.314.2A4.018,4.018,0,0,0,9.1,37.589,4.424,4.424,0,0,0,9,39.115a.148.148,0,0,1-.037.116.154.154,0,0,1-.114.052H8.838A10.874,10.874,0,0,1,1.365,35.29h0a.217.217,0,0,0-.355.028h0a4.152,4.152,0,0,0,.675,5.041,3.716,3.716,0,0,1-.946-.366h0a.217.217,0,0,0-.322.187h0A4.152,4.152,0,0,0,2.838,44H2.749a3.731,3.731,0,0,1-.7-.067h0a.217.217,0,0,0-.247.279h0a4.156,4.156,0,0,0,3.283,2.827A7.652,7.652,0,0,1,.8,48.347H.321a.318.318,0,0,0-.31.239.329.329,0,0,0,.157.363,11.382,11.382,0,0,0,5.719,1.542,11.538,11.538,0,0,0,4.888-1.037,10.793,10.793,0,0,0,3.576-2.68,11.749,11.749,0,0,0,2.19-3.667,11.585,11.585,0,0,0,.744-4.014V39.03a.706.706,0,0,1,.264-.549,8.2,8.2,0,0,0,1.649-1.81h0a.217.217,0,0,0-.268-.319Z" transform="translate(0 -34.491)" fill="#91b40d"/>
</svg>
