<svg xmlns="http://www.w3.org/2000/svg" width="34.691" height="35.188" viewBox="0 0 34.691 35.188">
  <g id="Group_6" data-name="Group 6" transform="translate(2936.672 -359.862)">
    <path id="Path_35" data-name="Path 35" d="M-2786.628,548.394a3.9,3.9,0,0,1-.417-.764,17.043,17.043,0,0,1-.474-4.363,27.835,27.835,0,0,1,1.914-10.931,14.27,14.27,0,0,1,3.4-5.39,12.526,12.526,0,0,1,4.309-2.574,26.852,26.852,0,0,1,6.135-1.307,65.735,65.735,0,0,0,7.279-1.032,16.806,16.806,0,0,0,3.844-1.359,3.343,3.343,0,0,1,.4-.192.493.493,0,0,1,.669.467,1.146,1.146,0,0,1-.038.306c-.588,2.237-1.138,4.484-1.78,6.706a17.816,17.816,0,0,1-5.117,8.484,14.124,14.124,0,0,1-7.537,3.55c-2.152.326-4.31.616-6.456.976a19.3,19.3,0,0,0-2.209.63c-.143.042-.28.1-.422.145-.557.165-.9-.065-.949-.644a3.991,3.991,0,0,1,.435-1.961,11.877,11.877,0,0,1,5.556-5.834c.846-.432,1.713-.823,2.571-1.232a.7.7,0,0,0,.212-.108,1.022,1.022,0,0,0,.127-.241c-.088-.029-.187-.1-.263-.079-.344.086-.683.192-1.021.3a18.6,18.6,0,0,0-4.643,2.031,10.438,10.438,0,0,0-4.183,5.008,14.853,14.853,0,0,0-1.143,6.41,18.826,18.826,0,0,0,.347,2.271.656.656,0,0,1-.209.729Z" transform="translate(-142.417 -153.344)" fill="#91b40d"/>
    <path id="Path_36" data-name="Path 36" d="M-2914.34,368.821c-.617.091-1.22.149-1.809.272-1.265.266-2.521.569-3.783.846a.64.64,0,0,1-.444-.026,10.525,10.525,0,0,0-4.358-1.572c-.356-.062-.709-.142-1.071-.181l4.515,2.208c-.826.461-1.583.842-2.3,1.29a11.059,11.059,0,0,0-3.244,3.131.415.415,0,0,1-.538.193,8.858,8.858,0,0,1-3.987-2.465,16.739,16.739,0,0,1-4.229-7.863c-.346-1.388-.728-2.768-1.069-4.157a.715.715,0,0,1,.109-.581c.088-.09.4-.058.551.024a17.953,17.953,0,0,0,7.14,1.809,23.787,23.787,0,0,1,6.74,1.224,16.519,16.519,0,0,1,7.348,5.186c.127.162.236.338.351.509A1.461,1.461,0,0,1-2914.34,368.821Z" transform="translate(0)" fill="#91b40d"/>
  </g>
</svg>
