<svg id="Group_246" data-name="Group 246" xmlns="http://www.w3.org/2000/svg" width="21.016" height="16.196" viewBox="0 0 21.016 16.196">
  <path id="Path_8" data-name="Path 8" d="M188.833,165.415a.657.657,0,0,0-.993.564v6.13a.658.658,0,0,0,.993.565l5.139-3.06a.658.658,0,0,0,0-1.129Zm.321,5.539v-3.818l3.2,1.912Z" transform="translate(-180.13 -160.947)" fill="#91b40d"/>
  <path id="Path_9" data-name="Path 9" d="M17.429,59.179a53.009,53.009,0,0,0-13.843,0,3.829,3.829,0,0,0-3.2,3.184,25.6,25.6,0,0,0,0,8.92,3.828,3.828,0,0,0,3.2,3.184,48.918,48.918,0,0,0,6.931.454,48.617,48.617,0,0,0,6.913-.454,3.831,3.831,0,0,0,3.195-3.184,25.612,25.612,0,0,0,0-8.921,3.829,3.829,0,0,0-3.2-3.183Zm1.9,11.886a2.52,2.52,0,0,1-2.093,2.1,51.552,51.552,0,0,1-13.458,0,2.52,2.52,0,0,1-2.094-2.1,24.047,24.047,0,0,1,0-8.483,2.522,2.522,0,0,1,2.095-2.1,47.568,47.568,0,0,1,6.727-.44,47.576,47.576,0,0,1,6.729.44,2.52,2.52,0,0,1,2.094,2.1,24.054,24.054,0,0,1,0,8.484Z" transform="translate(0 -58.725)" fill="#91b40d"/>
</svg>
